<?xml version="1.0" encoding="utf-8"?>
<!-- Generator: Adobe Illustrator 18.0.0, SVG Export Plug-In . SVG Version: 6.00 Build 0)  -->
<!DOCTYPE svg PUBLIC "-//W3C//DTD SVG 1.1//EN" "http://www.w3.org/Graphics/SVG/1.1/DTD/svg11.dtd">
<svg version="1.1" id="Layer_1" xmlns="http://www.w3.org/2000/svg" xmlns:xlink="http://www.w3.org/1999/xlink" x="0px" y="0px"
	 width="100px" height="100px" viewBox="0 0 100 100" enable-background="new 0 0 100 100" xml:space="preserve">
<g id="logo_1_">
	<path id="h" d="M80.6,33h-23V-4.4H37.2V96.2h20.5V53.5h15.1c1.7,0,2.9,0.7,3.3,2v29v11.9H97V52.6v-3.1C96.9,38.5,91.4,33,80.6,33z"
		/>
	<path id="n" d="M14.6,33h-27.3C-23.5,33-29,38.5-29,49.5v46.7h20.5v-39c0-2.3,1.2-3.5,3.5-3.5H6.8c2.3,0,3.5,1.2,3.5,3.5v39.1h20.4
		V49.7C30.8,38.5,25.4,33,14.6,33z"/>
	<g id="x">
		<path d="M141.2,48.6L153,33.4h26.1l-24.8,31.8l18.9,23.9c38.2-42.3,56-88.2,39.5-103.3c-15.1-14-54,3.3-90.7,38.6L141.2,48.6z"/>
		<path d="M142.3,80.6l-12.1,15.5h-26.1L129.2,64l-20.4-25.8c-37.8,42.1-55.3,87.7-39,102.7c15,13.8,53.6-3,90-38L142.3,80.6z"/>
	</g>
</g>
<path id="big-play" d="M58.2,14.6c-24.1,0-43.7,19.6-43.7,43.7S34.1,102,58.2,102s43.7-19.6,43.7-43.7S82.3,14.6,58.2,14.6z
	 M74.5,60.1L52.8,72.6c-1.3,0.8-3-0.2-3-1.7v-25c0-1.5,1.7-2.5,3-1.7l21.7,12.5C75.8,57.4,75.8,59.4,74.5,60.1z"/>
<g id="big-pause">
	<g>
		<g>
			<path d="M64,70.4c-1.8,0-3.2-1.4-3.2-3.2V49.3c0-1.8,1.4-3.2,3.2-3.2c1.8,0,3.2,1.4,3.2,3.2v17.9C67.2,69,65.8,70.4,64,70.4z
				 M52.5,70.4c-1.8,0-3.2-1.4-3.2-3.2V49.3c0-1.8,1.4-3.2,3.2-3.2c0.9,0,1.7,0.4,2.3,1s0.9,1.4,0.9,2.2v17.9
				C55.7,69,54.3,70.4,52.5,70.4z"/>
		</g>
		<g>
			<path d="M58.2,115.8C26.5,115.8,0.7,90,0.7,58.2S26.5,0.7,58.2,0.7s57.6,25.8,57.6,57.6S90,115.8,58.2,115.8z M58.2,2.7
				C27.6,2.7,2.7,27.6,2.7,58.2s24.9,55.6,55.6,55.6s55.6-24.9,55.6-55.6S88.9,2.7,58.2,2.7z"/>
		</g>
	</g>
</g>
<g id="facebook">
	<path d="M18,0.7C8.4,0.7,0.7,8.4,0.7,18S8.4,35.2,18,35.2S35.2,27.5,35.2,18S27.6,0.7,18,0.7z M21.6,12.9h-1.4
		c-1.1,0-1.3,0.5-1.3,1.3v1.7h2.7l-0.3,2.7H19v6.9h-2.8v-6.9H14v-2.7h2.3v-2c0-2.3,1.4-3.6,3.5-3.6c1,0,1.8,0.1,2.1,0.1v2.5
		C21.9,12.9,21.6,12.9,21.6,12.9z"/>
</g>
<g id="twitter">
	<path d="M18,0.7C8.4,0.7,0.7,8.4,0.7,18S8.4,35.2,18,35.2S35.2,27.5,35.2,18S27.6,0.7,18,0.7z M24.8,15.5c0,0.1,0,0.3,0,0.4
		c0,4.5-3.4,9.5-9.5,9.5c-1.9,0-3.7-0.6-5.2-1.5c0.3,0,0.5,0,0.8,0c1.6,0,3-0.5,4.2-1.4c-1.5,0-2.7-1-3.2-2.3c0.2,0,0.4,0.1,0.6,0.1
		c0.3,0,0.6,0,0.9-0.1c-1.5-0.3-2.7-1.7-2.7-3.3l0,0c0.5,0.3,1,0.4,1.5,0.4c-0.9-0.6-1.5-1.6-1.5-2.8c0-0.6,0.2-1.2,0.5-1.7
		c1.7,2,4.2,3.4,6.9,3.5C18,16.1,18,15.8,18,15.5c0-1.9,1.5-3.4,3.4-3.4c1,0,1.8,0.4,2.5,1.1c0.8-0.2,1.5-0.4,2.1-0.8
		c-0.3,0.8-0.8,1.4-1.5,1.9c0.7-0.1,1.3-0.3,1.9-0.5l0,0l0,0l0,0C26.1,14.4,25.5,15,24.8,15.5z"/>
</g>
<g id="circle">
	<path d="M18-0.2C7.9-0.2-0.2,7.9-0.2,18S7.9,36.1,18,36.1S36.1,28,36.1,18S28.1-0.2,18-0.2z"/>
</g>
<g id="soundcloud">
	<path d="M18,0.7C8.4,0.7,0.7,8.4,0.7,18S8.4,35.2,18,35.2S35.2,27.5,35.2,18S27.6,0.7,18,0.7z M9.7,20c0,0.2,0,0.4-0.1,0.5
		s-0.2,0.2-0.3,0.2c-0.2,0-0.3,0-0.5-0.1c-0.1-0.1-0.2-0.3-0.2-0.5v-2.6c0-0.2,0.1-0.3,0.2-0.5c0.1,0,0.2-0.1,0.4-0.1
		s0.3,0.1,0.4,0.2c0.1,0.1,0.2,0.3,0.2,0.5L9.7,20L9.7,20z M11.8,21.1c0,0.2-0.1,0.3-0.2,0.4c-0.1,0.1-0.3,0.1-0.5,0.1
		s-0.4,0-0.5-0.1s-0.2-0.2-0.2-0.4V15c0-0.2,0.1-0.3,0.2-0.5c0.1-0.1,0.3-0.2,0.5-0.2s0.3,0.1,0.5,0.2c0.1,0.1,0.2,0.3,0.2,0.5V21.1
		z M13.9,21.4c0,0.2-0.1,0.3-0.2,0.4c-0.1,0.1-0.3,0.1-0.5,0.1s-0.4,0-0.5-0.1s-0.1-0.2-0.1-0.4v-5.6c0-0.2,0.1-0.3,0.2-0.5
		c0.1-0.1,0.3-0.2,0.5-0.2s0.3,0.1,0.5,0.2c0.1,0.1,0.2,0.3,0.2,0.5L13.9,21.4L13.9,21.4z M16,21.4c0,0.3-0.2,0.5-0.7,0.5
		s-0.7-0.2-0.7-0.5v-8.9c0-0.3,0.1-0.5,0.3-0.7s0.4-0.2,0.6-0.2c0.3,0.1,0.5,0.4,0.5,0.9V21.4z M26.8,21c-0.6,0.6-1.3,0.9-2.2,0.9
		h-7.8c-0.1,0-0.1-0.1-0.1-0.1v-0.1V12c0-0.3,0.1-0.5,0.3-0.6c0.4-0.1,0.8-0.1,1.2-0.1c0.9,0,1.8,0.2,2.6,0.7c0.8,0.4,1.4,1,1.9,1.8
		c0.5,0.7,0.8,1.6,0.9,2.5c0.4-0.2,0.8-0.2,1.2-0.2c0.8,0,1.6,0.3,2.2,0.9s0.9,1.3,0.9,2.1C27.7,19.7,27.4,20.4,26.8,21z"/>
</g>
<g id="seek">
	<path d="M35.4,4c1.7,0,3.1,1.4,3.1,3.1v29.4c0,1.7-1.4,3.1-3.1,3.1h-0.3c-1.7,0-3.1-1.4-3.1-3.1v-6.9v-5.7l-4.8,2.8L8.9,37.3
		c-0.6,0.3-1,0.4-1.6,0.4c-1.6,0-3.3-1.3-3.3-3.3V8.9C4,7.8,4.6,7,5,6.6C5.6,6,6.4,5.7,7.3,5.7c0.6,0,1.1,0.1,1.6,0.4l18.4,10.6
		l4.8,2.8v-5.7V6.9c0-1.7,1.4-3.1,3.1-3.1L35.4,4 M35.4,0.7h-0.3c-3.6,0-6.4,2.8-6.4,6.4V14L10.4,3.4c-1-0.6-2.1-0.9-3.3-0.9
		C3.8,2.6,0.7,5.2,0.7,9v25.6c0,3.8,3.1,6.6,6.6,6.6c1.1,0,2.1-0.3,3.3-0.9L29,29.7v6.9c0,3.6,2.8,6.4,6.4,6.4h0.2
		c3.6,0,6.4-2.8,6.4-6.4V7C42,3.5,39,0.7,35.4,0.7L35.4,0.7z"/>
</g>
<g id="pause">
	<path d="M9.9,4c3.3,0,6,2.7,6,6v41c0,3.3-2.7,6-6,6s-6-2.7-6-6V9.9C4,6.6,6.6,4,9.9,4 M9.9,0.7L9.9,0.7c-5.2,0-9.2,4.1-9.2,9.2V51
		c0,5.1,4.1,9.2,9.2,9.2l0,0c5.1,0,9.2-4.1,9.2-9.2V9.9C19.2,4.8,15,0.7,9.9,0.7L9.9,0.7z"/>
	<path d="M36.4,4c3.3,0,6,2.7,6,6v41c0,3.3-2.7,6-6,6s-6-2.7-6-6V9.9C30.4,6.6,33.2,4,36.4,4 M36.4,0.7L36.4,0.7
		c-5.1,0-9.2,4.1-9.2,9.2V51c0,5.1,4.1,9.2,9.2,9.2l0,0c5.1,0,9.2-4.1,9.2-9.2V9.9C45.6,4.8,41.6,0.7,36.4,0.7L36.4,0.7z"/>
</g>
<g id="play">
	<path d="M10.7,4L10.7,4c1.1,0,2.3,0.3,3.4,1l34.4,19.9c2.1,1.3,3.4,3.4,3.4,5.8s-1.3,4.7-3.4,5.8L14.1,56.4c-1,0.6-2.1,1-3.4,1
		c-1.7,0-3.4-0.7-4.7-2s-2-3-2-4.8V10.7C4,6.4,7.4,4,10.7,4 M10.7,0.7c-5.3,0-10,4.3-10,10v39.9c0,5.8,4.8,10,10,10
		c1.7,0,3.4-0.4,5-1.4l34.4-19.9c6.6-3.8,6.6-13.4,0-17.4L15.7,2.1C14.1,1.1,12.4,0.7,10.7,0.7L10.7,0.7z"/>
</g>
<g id="larr">
	<polygon points="89,44 26.1,44 55,15.1 48,8 7,49 48,90 55,82.9 26.1,54 89,54 	"/>
</g>
<g id="generating">
	<g>
		<path d="M2.5,47.4c0-0.9,0.4-1.3,1.1-1.3c0.7,0,1.1,0.5,1.1,1.3v1H4.2v-1.1c0-0.5-0.2-0.7-0.5-0.7s-0.5,0.2-0.5,0.7v5.2
			c0,0.5,0.2,0.7,0.5,0.7s0.5-0.2,0.5-0.7v-2.3H3.7v-0.6h1.1v4.1H4.3l-0.1-0.3c-0.2,0.2-0.4,0.4-0.7,0.4c-0.6,0-1-0.4-1-1.2
			L2.5,47.4L2.5,47.4z"/>
		<path d="M7.4,46.2h1.9v0.6H8.1v2.9h1v0.6h-1v3h1.2v0.6H7.4V46.2z"/>
		<path d="M11.7,46.2h0.9l1,5.9v-5.9h0.6v7.6h-0.9l-1-5.9v5.9h-0.6V46.2z"/>
		<path d="M16.8,46.2h1.9v0.6h-1.2v2.9h1v0.6h-1v3h1.2v0.6h-1.9V46.2z"/>
		<path d="M21.2,46.2h1c0.8,0,1.3,0.5,1.3,1.3v1.4c0,0.5-0.2,0.9-0.5,1.1c0.3,0.2,0.5,0.6,0.5,1.1v1.3c0,0.9,0.2,1.4,0.2,1.4H23
			c0,0-0.2-0.4-0.2-1.4V51c0-0.5-0.3-0.7-0.7-0.7h-0.3v3.5h-0.7L21.2,46.2L21.2,46.2z M22.1,49.7c0.4,0,0.7-0.2,0.7-0.7v-1.5
			c0-0.5-0.3-0.7-0.7-0.7h-0.3v3L22.1,49.7L22.1,49.7z"/>
		<path d="M26.8,46.2h0.9l0.9,7.6h-0.6l-0.2-1.5h-1.1l-0.2,1.5h-0.7L26.8,46.2z M27.7,51.7l-0.5-4.3l-0.5,4.3H27.7z"/>
		<path d="M31.1,46.8h-0.7v-0.6h2.2v0.6h-0.7v7.1h-0.7L31.1,46.8L31.1,46.8z"/>
		<path d="M34.8,46.2h0.7v7.6h-0.7V46.2z"/>
		<path d="M38.1,46.2H39l1,5.9v-5.9h0.6v7.6h-0.9l-1-5.9v5.9h-0.6V46.2z"/>
		<path d="M43.2,47.4c0-0.9,0.4-1.3,1.1-1.3c0.7,0,1.1,0.5,1.1,1.3v1h-0.7v-1.1c0-0.5-0.2-0.7-0.5-0.7s-0.5,0.2-0.5,0.7v5.2
			c0,0.5,0.2,0.7,0.5,0.7s0.5-0.2,0.5-0.7v-2.3h-0.5v-0.6h1.1v4.1H45l-0.1-0.3c-0.2,0.2-0.4,0.4-0.7,0.4c-0.6,0-1-0.4-1-1.2
			L43.2,47.4L43.2,47.4z"/>
		<path d="M51.1,46.2H52l1,6.4l1-6.4H55v7.6h-0.7v-5.9l-1,5.9h-0.7l-1-5.9v5.9h-0.7L51.1,46.2L51.1,46.2z"/>
		<path d="M57.5,46.2h0.7v6.4c0,0.5,0.2,0.7,0.5,0.7s0.5-0.2,0.5-0.7v-6.4h0.7v6.4c0,0.9-0.4,1.3-1.1,1.3c-0.7,0-1.1-0.5-1.1-1.3
			V46.2z"/>
		<path d="M62.3,51H63v1.6c0,0.5,0.2,0.7,0.5,0.7s0.5-0.2,0.5-0.7v-1.3c0-0.3-0.1-0.5-0.3-0.7l-0.8-0.8c-0.4-0.4-0.5-0.6-0.5-1.2
			v-1.2c0-0.9,0.4-1.3,1.1-1.3s1.1,0.5,1.1,1.3V49H64v-1.6c0-0.5-0.2-0.7-0.5-0.7S63,46.9,63,47.4v1.3c0,0.3,0.1,0.5,0.3,0.7
			l0.8,0.8c0.4,0.4,0.5,0.6,0.5,1.2v1.2c0,0.9-0.4,1.3-1.1,1.3s-1.1-0.5-1.1-1.3L62.3,51L62.3,51z"/>
		<path d="M67.2,46.2h0.7v7.6h-0.7V46.2z"/>
		<path d="M70.4,47.4c0-0.9,0.4-1.3,1.1-1.3c0.7,0,1.1,0.5,1.1,1.3v1.9H72v-1.9c0-0.5-0.2-0.7-0.5-0.7c-0.3,0-0.5,0.2-0.5,0.7v5.2
			c0,0.5,0.2,0.7,0.5,0.7c0.3,0,0.5-0.2,0.5-0.7v-2h0.7v2c0,0.9-0.4,1.3-1.1,1.3c-0.7,0-1.1-0.5-1.1-1.3V47.4z"/>
		<path d="M78.7,53.8l-0.8-7.6h0.7l0.6,6.5l0.6-6.5h0.6l-0.8,7.6H78.7z"/>
		<path d="M82.8,46.2h0.7v7.6h-0.7V46.2z"/>
		<path d="M86.1,46.2H87c0.8,0,1.3,0.5,1.3,1.3v5c0,0.9-0.6,1.3-1.3,1.3h-0.9V46.2z M87,53.2c0.4,0,0.7-0.2,0.7-0.7v-5
			c0-0.5-0.3-0.7-0.7-0.7h-0.3v6.5H87z"/>
		<path d="M90.9,46.2h1.9v0.6h-1.2v2.9h1v0.6h-1v3h1.2v0.6h-1.9V46.2z"/>
		<path d="M95.1,47.4c0-0.9,0.4-1.3,1.2-1.3c0.7,0,1.2,0.5,1.2,1.3v5.1c0,0.9-0.5,1.3-1.2,1.3c-0.7,0-1.2-0.5-1.2-1.3V47.4z
			 M96.3,53.3c0.3,0,0.5-0.2,0.5-0.7v-5.2c0-0.5-0.2-0.7-0.5-0.7c-0.3,0-0.5,0.2-0.5,0.7v5.2C95.8,53.1,96,53.3,96.3,53.3z"/>
	</g>
</g>
<g id="hands">
	<path d="M98.2,67.5c-0.1-0.4-0.5-2.3-0.9-3.9c-0.4-2.1-0.9-4.2-1.2-5.1c-0.6-2.3-2.7-4.2-3.6-5.1c-1.1-1.1-2.2-2.9-3.2-4.6
		c-0.6-1.1-1.2-2.1-1.8-2.8c-0.6-0.8-1.3-1.6-2.4-1.8c-1.2-0.1-2.3-0.1-2.8-0.1L82,41.7l0,0c-0.2-1.2-0.7-2.3-1.4-3.1
		c-0.8-0.9-1.9-1.4-3-1.4H56.5l0,0H22.4c-1.2,0-2.2,0.5-3,1.4c-0.7,0.8-1.2,1.9-1.4,3.1l0,0l-0.3,2.4c-0.5,0-1.7,0-2.8,0.1
		c-1.1,0.1-1.8,1-2.4,1.8c-0.6,0.8-1.2,1.8-1.8,2.8c-1,1.6-2.1,3.5-3.2,4.6c-1,0.9-3,2.8-3.6,5.1c-0.3,0.9-0.7,3.1-1.2,5.1
		c-0.4,1.7-0.8,3.5-0.9,3.9c-0.2,0.6,0.1,1.2,0.6,1.5c0-0.1-0.1-0.1-0.1-0.1c0.3-0.9,2.2-8.4,2.6-10c0.5-1.9,2.4-3.7,3.3-4.5
		c2.8-2.6,4.9-8.6,6.7-8.9c1-0.1,2-0.1,2.6-0.1l-0.2,1.8c-0.2,0.1-0.4,0.3-0.5,0.5c-0.4,0.5-0.6,1-0.6,1.1c-0.1,0.2-0.6,2-0.8,3
		c-0.1,0.7-0.3,1.3-0.6,1.9c-0.4,1-0.7,2-0.7,3.3c0,2.1-0.3,4.7-1,5.9c-0.1,0.1-0.1,0.2-0.2,0.3c0,0,0,0,0,0v0
		c-0.8,1.1-1.3,3.2-1.4,3.3c0,0.1,0,0.2,0.2,0.3c0.1,0,0.2,0,0.3-0.2c0,0,0.6-2.5,1.5-3.4l0,0l0,0c0.4-0.6,0.6-1.6,0.8-2.9
		c0.2-1.3,0.2-2.6,0.2-3.2c0-1.2,0.4-2.2,0.7-3.2c0.2-0.7,0.5-1.3,0.6-2c0.1-0.4,0.2-0.9,0.3-1.3c0,0.6,0,1.2,0.1,1.3
		c0.2,0.3,0.9,0.4,1.4,0.5c0.1,0,0.1,0,0.2,0c0.3,0,0.8,0.1,1.2,0.1c0.3,0,0.6,0,0.7,0c0,0,0.1,0,0.2,0c0.4,0,1.5-0.1,1.7-0.6
		c0.2-0.5,0.2-1.8,0.3-2.6c0.4,1,0.7,2.2,0.8,3.6c0.1,1.5,0,2.9-0.2,4c-0.8,3-0.9,4.8-0.3,6.9c0.1,0.4,0.3,1.1,0.5,1.8l0.3,1.1
		c0.6,2.5,1.4,5.7,1.3,8l0,0c0,0.3,0,0.7,0,1c0.5-0.1,1-0.5,1-1.1c0.1-1.6,0-3.7-0.5-6.2c-0.1-0.6-0.2-1.2-0.3-1.7h24.9l0,0h26.2
		c-0.1,0.5-0.2,1.1-0.3,1.7c-0.5,2.5-0.6,4.6-0.5,6.2c0,0.6,0.5,1,1,1.1c0-0.4,0-0.7,0-1l0,0c0-2.3,0.7-5.6,1.3-8l0.3-1.1
		c0.2-0.7,0.4-1.4,0.5-1.8c0.6-2,0.5-3.8-0.3-6.9c-0.3-1-0.4-2.5-0.2-4c0.1-1.3,0.4-2.6,0.8-3.6c0,0.8,0.1,2.2,0.3,2.6
		c0.2,0.5,1.2,0.6,1.7,0.6c0.1,0,0.1,0,0.2,0c0.1,0,0.4,0,0.7,0c0.4,0,0.9,0,1.2-0.1c0.1,0,0.1,0,0.2,0c0.5-0.1,1.1-0.2,1.4-0.5
		c0.1-0.2,0.2-0.8,0.1-1.3c0.1,0.5,0.3,1,0.3,1.3c0.1,0.7,0.3,1.3,0.6,2c0.3,1,0.7,2,0.7,3.2c0,0.6,0.1,1.9,0.2,3.2
		c0.2,1.3,0.5,2.3,0.8,2.9l0,0l0,0c0.8,0.8,1.5,3.4,1.5,3.4c0,0.1,0.2,0.2,0.3,0.2c0.1,0,0.2-0.2,0.2-0.3c0-0.1-0.6-2.2-1.4-3.3v0
		c0,0,0,0,0,0c-0.1-0.1-0.1-0.2-0.2-0.3c-0.7-1.1-0.9-3.8-1-5.9c0-1.3-0.4-2.3-0.7-3.3c-0.2-0.7-0.5-1.3-0.6-1.9
		c-0.2-1-0.7-2.8-0.8-3c0-0.1-0.2-0.6-0.6-1.1c-0.1-0.2-0.3-0.3-0.5-0.5l-0.2-1.8c0.5,0,1.5,0,2.6,0.1c1.9,0.2,4,6.3,6.7,8.9
		c0.9,0.8,2.7,2.6,3.3,4.5c0.5,1.7,2.4,9.1,2.6,10c0,0,0,0-0.1,0.1C98.1,68.7,98.4,68.1,98.2,67.5z M21.4,51.7
		c-0.2,0.4-1.3,0.5-1.6,0.5c-0.1,0-0.4,0-0.7,0c-0.4,0-0.9,0-1.2-0.1c-0.1,0-0.1,0-0.2,0c-0.4-0.1-1.1-0.1-1.2-0.4
		c-0.2-0.3-0.1-1.3,0-2.2l-0.1,0.3c0.2-0.5,0.3-0.9,0.3-0.9l0,0c0-0.1,0.2-0.9,1-1.4l0.7-0.3c0.3-0.1,0.6-0.1,1-0.1
		c0.6,0.1,1.2,0.3,1.6,0.6c0.3,0.3,0.6,0.6,0.6,1l0,0l0,0c0,0,0,0,0,0C21.7,49.3,21.6,51.1,21.4,51.7z M77.9,48.5
		c-0.5,1.1-0.9,2.6-1.1,4.1c-0.1,1.5,0,3,0.3,4.1c0.8,2.9,0.9,4.7,0.3,6.6c-0.1,0.5-0.4,1.2-0.6,2H56.5l0,0H23.2
		c-0.2-0.8-0.4-1.5-0.6-2c-0.6-1.9-0.5-3.7,0.3-6.6c0.3-1.1,0.4-2.6,0.3-4.1c-0.1-1.6-0.5-3.1-1.1-4.1c-0.2-0.8-1-1.7-2.6-1.9
		c-0.4,0-0.7,0-1,0l0.5-4.8c0.2-1,0.5-1.9,1.1-2.6c0.6-0.7,1.4-1.1,2.2-1.1h3.4h0.3h6.6H33h16.3l0,0H67l-6.5,5.7l0.1,0.2l6.7-5.9
		h6.6L53.9,55.8L54,56l20.2-17.8h3.4c0.8,0,1.6,0.4,2.2,1.1c0.6,0.7,1,1.6,1.1,2.6l0.5,4.8c-0.3,0-0.6-0.1-1,0
		C78.9,46.8,78,47.6,77.9,48.5z M83.3,48.8L83.3,48.8c0,0,0.1,0.4,0.3,0.9l-0.1-0.3c0.1,0.9,0.2,1.9,0,2.2c-0.2,0.2-0.8,0.3-1.2,0.4
		c-0.1,0-0.1,0-0.2,0c-0.3,0-0.8,0.1-1.2,0.1c-0.3,0-0.6,0-0.7,0c-0.3,0-1.4-0.1-1.6-0.5c-0.2-0.5-0.3-2.3-0.3-3c0,0,0,0,0,0l0,0
		l0,0c0.1-0.3,0.3-0.7,0.6-1c0.4-0.3,0.9-0.5,1.6-0.6c0.4,0,0.7,0,1,0.1l0.7,0.3C83.1,47.9,83.2,48.7,83.3,48.8z"/>
</g>
<rect y="24.5" display="none" fill="none" stroke="#000000" stroke-width="0.977" stroke-miterlimit="10" width="100" height="49"/>
</svg>
